<?xml version="1.0" encoding="UTF-8" standalone="no"?>
<!DOCTYPE svg PUBLIC "-//W3C//DTD SVG 1.1//EN" "http://www.w3.org/Graphics/SVG/1.1/DTD/svg11.dtd">
<svg width="100%" height="100%" viewBox="0 0 328 108" version="1.1" xmlns="http://www.w3.org/2000/svg" xmlns:xlink="http://www.w3.org/1999/xlink" xml:space="preserve" xmlns:serif="http://www.serif.com/" style="fill-rule:evenodd;clip-rule:evenodd;stroke-linejoin:round;stroke-miterlimit:2;">
    <g id="a">
        <path d="M37.85,61.25C37.583,61.25 37.317,61.267 37.05,61.3C36.717,61.133 36.417,60.967 36.15,60.8C35.95,60.733 35.767,60.633 35.6,60.5L35,59.9L30.75,53.45L29.25,64.7L32.7,64.7C33.2,64.633 33.7,64.517 34.2,64.35C34.767,64.183 35.317,63.933 35.85,63.6C36.217,63.367 36.567,63.1 36.9,62.8C37.233,62.5 37.55,62.167 37.85,61.8C38.183,61.467 38.433,61.067 38.6,60.6C38.567,60.633 38.517,60.667 38.45,60.7C38.383,60.8 38.3,60.883 38.2,60.95L38.1,61.15C38,61.183 37.917,61.217 37.85,61.25M96.15,61.25C95.55,61.25 95.067,61.017 94.7,60.55C94.5,60.35 94.317,60.15 94.15,59.95L94.1,59.9L94.1,59.85L89.85,53.45L88.35,64.7L91.8,64.7C92.3,64.633 92.8,64.517 93.3,64.35C93.867,64.183 94.4,63.933 94.9,63.6C95.4,63.267 95.867,62.9 96.3,62.5C96.6,62.267 96.85,61.983 97.05,61.65C97.283,61.317 97.5,60.967 97.7,60.6L97.25,61.15C96.917,61.25 96.55,61.283 96.15,61.25M115.85,64.5L119.3,64.5C119.8,64.433 120.3,64.317 120.8,64.15C120.967,64.117 121.117,64.067 121.25,64C121.483,63.9 121.7,63.8 121.9,63.7L122.4,63.4C122.567,63.3 122.733,63.183 122.9,63.05C123.2,62.817 123.5,62.567 123.8,62.3C124.1,62.067 124.35,61.783 124.55,61.45L124.65,61.35C124.717,61.217 124.783,61.1 124.85,61C124.983,60.8 125.1,60.6 125.2,60.4L124.9,60.8L124.75,60.95C124.417,61.05 124.05,61.083 123.65,61.05C123.483,61.05 123.35,61.033 123.25,61C122.917,60.9 122.65,60.767 122.45,60.6C122.35,60.533 122.267,60.45 122.2,60.35C122,60.15 121.817,59.95 121.65,59.75L121.6,59.7L121.6,59.65L117.35,53.25L115.85,64.5M168.45,64.7C166.383,64.533 164.483,64.283 162.75,63.95C159.017,63.25 156.05,62.217 153.85,60.85C153.35,60.517 152.883,60.183 152.45,59.85C150.35,58.15 149.183,56.017 148.95,53.45L147.45,64.7L168.45,64.7M201.85,59.05C200.317,57.483 199.45,55.617 199.25,53.45L197.75,64.7L218.75,64.7C211.25,64.067 205.917,62.45 202.75,59.85C202.417,59.583 202.117,59.317 201.85,59.05M257,61.55C255.3,61.383 254.217,60.783 253.75,59.75L249.55,53.45L248.05,64.7L251.5,64.7C251.9,64.633 252.3,64.533 252.7,64.4C252.967,64.333 253.217,64.267 253.45,64.2C253.683,64.1 253.9,64 254.1,63.9C254.567,63.667 255.017,63.4 255.45,63.1C255.95,62.733 256.383,62.317 256.75,61.85C256.817,61.75 256.9,61.65 257,61.55M280.95,53.5L279.45,64.7L300.45,64.7C300.25,64.667 300.05,64.65 299.85,64.65C292.65,63.983 287.517,62.383 284.45,59.85C282.35,58.15 281.183,56.033 280.95,53.5Z" style="fill:rgb(1,68,101);fill-rule:nonzero;"/>
        <path d="M40.65,47.25L51.8,47.25L49.75,61.7L66.25,61.7L68.55,45.45L68.5,45.45L69.3,39.75C69.567,38.117 69.233,36.717 68.3,35.55C68.067,35.283 67.817,35.017 67.55,34.75C67.383,34.583 67.2,34.417 67,34.25C66.867,34.117 66.717,34 66.55,33.9C65.25,32.967 63.75,32.5 62.05,32.5L34.3,32.5C33.4,32.5 32.533,32.65 31.7,32.95C30.6,33.317 29.55,33.917 28.55,34.75C26.717,36.25 25.633,38 25.3,40L23.65,52L23.7,52L23.7,52.3L29.55,53.45L20.05,53.45C19.717,53.483 19.383,53.533 19.05,53.6C18.717,53.7 18.383,53.817 18.05,53.95C17.717,54.083 17.4,54.233 17.1,54.4C16.767,54.6 16.45,54.833 16.15,55.1C15.85,55.333 15.567,55.6 15.3,55.9C15.067,56.167 14.85,56.45 14.65,56.75C14.45,57.05 14.283,57.35 14.15,57.65C14.05,57.95 13.95,58.267 13.85,58.6L8,100.2L24.25,100.2L29.25,64.7L30.75,53.45L35,59.9L35.6,60.5C35.767,60.633 35.95,60.733 36.15,60.8C36.417,60.967 36.717,61.133 37.05,61.3C37.317,61.267 37.583,61.25 37.85,61.25C37.917,61.217 38,61.183 38.1,61.15L38.2,60.95C38.3,60.883 38.383,60.8 38.45,60.7C38.517,60.667 38.567,60.633 38.6,60.6L38.9,59.55L40.65,47.25M127.45,45.25L127.4,45.25L127.55,44L127.5,44L129.15,32.3L112.9,32.3L110.25,51.8L110.3,51.8L110.3,52L110.25,52.1L110.3,52.1L116.1,53.25L106.65,53.25C106.317,53.283 105.983,53.333 105.65,53.4C105.317,53.5 104.983,53.617 104.65,53.75C104.55,53.783 104.45,53.833 104.35,53.9C104.15,53.967 103.967,54.05 103.8,54.15C103.767,54.15 103.733,54.167 103.7,54.2C103.367,54.4 103.033,54.617 102.7,54.85C102.433,55.083 102.2,55.317 102,55.55C101.633,56.017 101.317,56.5 101.05,57C100.817,57.433 100.633,57.9 100.5,58.4C100.4,58.867 100.317,59.333 100.25,59.8L100.25,59.85C100.15,60.55 100.033,61.233 99.9,61.9L98.7,70.65L98.7,70.75L96.6,85.45L85.35,85.45L87.6,69.9L87.65,69.9L88.35,64.7L89.85,53.45L94.1,59.85L94.1,59.9L94.15,59.95C94.317,60.15 94.5,60.35 94.7,60.55C95.067,61.017 95.55,61.25 96.15,61.25C96.55,61.283 96.917,61.25 97.25,61.15L97.7,60.6L98,59.55L99.3,50.5L99.25,50.5L99.95,45.45L99.9,45.45L100.05,44.2L100,44.2L101.65,32.5L85.4,32.5L82.75,52L82.8,52L82.75,52.3L88.6,53.45L79.15,53.45C78.817,53.483 78.483,53.533 78.15,53.6C77.817,53.7 77.483,53.817 77.15,53.95C76.817,54.083 76.5,54.233 76.2,54.4C75.867,54.6 75.533,54.817 75.2,55.05C74.933,55.317 74.667,55.6 74.4,55.9C74.233,56.1 74.05,56.317 73.85,56.55C73.817,56.617 73.767,56.683 73.7,56.75C73.533,57.05 73.4,57.35 73.3,57.65C73.167,57.95 73.067,58.267 73,58.6C72.933,59.033 72.867,59.45 72.8,59.85C72.667,60.617 72.533,61.367 72.4,62.1L68.1,92.7C67.933,94.7 68.517,96.45 69.85,97.95C70.917,99.15 72.25,99.867 73.85,100.1C74.25,100.167 74.667,100.2 75.1,100.2L102.45,100.2C104.617,100.2 106.617,99.45 108.45,97.95C108.683,97.717 108.917,97.533 109.15,97.4L109.45,97.2C110.783,95.867 111.533,94.367 111.7,92.7L113.35,81.1C113.383,81.067 113.417,81.05 113.45,81.05L115.1,69.7L115.15,69.7L115.85,64.5L117.35,53.25L121.6,59.65L121.6,59.7L121.65,59.75C121.817,59.95 122,60.15 122.2,60.35C122.267,60.45 122.35,60.533 122.45,60.6C122.65,60.767 122.917,60.9 123.25,61C123.35,61.033 123.483,61.05 123.65,61.05C124.05,61.083 124.417,61.05 124.75,60.95L124.9,60.8L125.2,60.4L125.5,59.35L126.8,50.3L126.75,50.3L127.45,45.25M189.25,10.25C187.75,8.75 185.917,8 183.75,8L156,8C154,8 152.083,8.75 150.25,10.25C149.383,10.883 148.7,11.583 148.2,12.35C147.9,12.75 147.667,13.15 147.5,13.55C147.367,13.883 147.25,14.217 147.15,14.55C147.083,14.85 147.033,15.167 147,15.5L142.85,45.45L142.8,45.45L142.1,50.65L142.05,50.65L141.85,52L141.9,52L141.85,52.3L147.7,53.45L138.25,53.45C136.85,53.483 135.533,54.017 134.3,55.05C133.033,56.083 132.283,57.267 132.05,58.6L131.55,62.1L131.5,62.1L126.2,100.2L142.45,100.2L147.45,64.7L148.95,53.45C149.183,56.017 150.35,58.15 152.45,59.85C152.883,60.183 153.35,60.517 153.85,60.85C156.05,62.217 159.017,63.25 162.75,63.95C164.483,64.283 166.383,64.533 168.45,64.7L170.2,53.45L158,53.45L158.4,50.5L158.35,50.5L159.05,45.45L159,45.45C159.067,44.85 159.167,44.217 159.3,43.55C159.367,43.05 159.433,42.517 159.5,41.95C160.067,38.017 160.783,33.05 161.65,27.05C161.65,26.95 161.667,26.867 161.7,26.8L161.8,25.9C161.933,24.867 162.083,23.817 162.25,22.75L173.5,22.75L170.4,43.55L186.9,43.55L191,15.5C191.1,14.367 190.967,13.317 190.6,12.35C190.267,11.617 189.817,10.917 189.25,10.25M239.55,10.25C238.05,8.75 236.217,8 234.05,8L206.3,8C204.767,8 203.283,8.45 201.85,9.35C201.417,9.583 200.983,9.883 200.55,10.25C199.683,10.883 199,11.583 198.5,12.35C198.2,12.75 197.967,13.15 197.8,13.55C197.533,14.15 197.367,14.8 197.3,15.5L193.15,45.45L193.1,45.45L192.4,50.65L192.35,50.65L192.15,52L192.2,52L192.15,52.3L198,53.45L188.55,53.45C187.15,53.483 185.833,54.017 184.6,55.05C183.333,56.083 182.583,57.267 182.35,58.6L181.85,62.1L181.8,62.1L180.6,70.85L180.6,70.95L176.5,100.2L192.75,100.2L197.75,64.7L199.25,53.45C199.45,55.617 200.317,57.483 201.85,59.05C202.117,59.317 202.417,59.583 202.75,59.85C205.917,62.45 211.25,64.067 218.75,64.7L220.5,53.45L208.3,53.45L208.7,50.5L208.65,50.5L209.35,45.45L209.3,45.45C209.4,44.85 209.5,44.217 209.6,43.55C209.667,43.05 209.75,42.517 209.85,41.95C209.95,41.117 210.067,40.233 210.2,39.3L210.2,39.25C210.833,34.783 211.617,29.283 212.55,22.75L223.8,22.75L220.7,43.55L237.2,43.55L241.3,15.5C241.4,14.367 241.267,13.317 240.9,12.35C240.567,11.617 240.117,10.917 239.55,10.25M259.5,45.5L259.5,45.45L264.85,8L248.6,8L242.45,52.3L248.3,53.45L238.85,53.45C238.517,53.483 238.183,53.533 237.85,53.6C237.517,53.7 237.183,53.817 236.85,53.95C236.517,54.083 236.2,54.233 235.9,54.4C235.567,54.6 235.233,54.817 234.9,55.05C234.633,55.317 234.367,55.6 234.1,55.9C233.867,56.167 233.633,56.45 233.4,56.75C233.233,57.05 233.083,57.35 232.95,57.65C232.85,57.95 232.75,58.267 232.65,58.6L226.8,100.2L243.05,100.2L248.05,64.7L249.55,53.45L253.75,59.75C254.217,60.783 255.3,61.383 257,61.55L257.05,61.45C257.217,61.183 257.333,60.9 257.4,60.6L257.7,59.55L259.5,45.5M285.1,29.75C284.667,29.75 284.233,29.783 283.8,29.85C282.133,30.083 280.567,30.8 279.1,32C277.267,33.5 276.183,35.25 275.85,37.25L273.9,51.95L273.9,52L273.85,52.3L279.7,53.45L270.25,53.45C268.983,53.483 267.783,53.933 266.65,54.8C266.517,54.867 266.4,54.95 266.3,55.05C265.033,56.083 264.283,57.267 264.05,58.6L259.2,92.7C259.033,94.7 259.617,96.45 260.95,97.95C261.783,98.883 262.783,99.533 263.95,99.9C264.65,100.1 265.4,100.2 266.2,100.2L293.95,100.2C296.117,100.2 298.117,99.45 299.95,97.95C301.783,96.617 302.867,94.95 303.2,92.95L305.95,74.45L289.45,74.45L287.7,85.45L276.45,85.45L278.55,70.7L278.6,70.7L279.45,64.7L280.95,53.5C281.183,56.033 282.35,58.15 284.45,59.85C287.517,62.383 292.65,63.983 299.85,64.65C300.05,64.65 300.25,64.667 300.45,64.7L316.2,64.7L318.95,45.45L318.9,45.45L320.05,37.25C320.383,35.25 319.8,33.5 318.3,32C317.467,31.167 316.467,30.583 315.3,30.25C314.633,29.917 313.883,29.75 313.05,29.75L285.1,29.75M291.05,45.45L290.95,45.45L291.1,44.5L302.55,44.5L301.3,53.45L290,53.45L290.4,50.5L290.35,50.5L291.05,45.45Z" style="fill:rgb(2,118,177);fill-rule:nonzero;"/>
    </g>
</svg>
